# xmcd
#
# Track frame offsets:
#	182
#	20492
#	36772
#	62022
#
# Disc length: 1227 seconds
#
# Revision: 5
# Processed by: cddbd v1.5.2PL0 Copyright (c) Steve Scherf et al.
# Submitted via: audiograbber 1.83.01
#
DISCID=2b04c904
DTITLE=Crow, Sheryl - Run, baby, run
DYEAR=1993
DGENRE=Rock
TTITLE0=Run, baby, run
TTITLE1=Strong enough (live in Nashville)
TTITLE2=No-One said it would be easy (live in Nashville)
TTITLE3=The na-na song (live in Nashville)
EXTD=
EXTT0=
EXTT1=
EXTT2=
EXTT3=
PLAYORDER=
